<?xml version="1.0" encoding="utf-8"?>
<!-- Generator: Adobe Illustrator 22.1.0, SVG Export Plug-In . SVG Version: 6.00 Build 0)  -->
<svg version="1.1" id="Layer_1" xmlns="http://www.w3.org/2000/svg" xmlns:xlink="http://www.w3.org/1999/xlink" x="0px" y="0px"
	 viewBox="0 0 14 24" style="enable-background:new 0 0 14 24;" xml:space="preserve">
<style type="text/css">
	.st0{enable-background:new    ;}
	.st1{fill:#2B2D34;}
</style>
<g class="st0">
	<path class="st1" d="M13.8,5.3V6h-0.9l-1.1,13.6c0,0.4-0.1,0.7-0.4,1s-0.6,0.4-1,0.4H3.7c-0.4,0-0.7-0.1-1-0.4
		c-0.3-0.3-0.4-0.6-0.4-1L1.2,6h-1V5.3H4V4.4c0-0.4,0.1-0.7,0.4-1C4.7,3.1,5,3,5.4,3h3.3c0.4,0,0.7,0.1,1,0.4S10,4,10,4.4v0.9H13.8z
		 M11,19.6L12.1,6H1.9L3,19.6v0c0,0.4,0.2,0.7,0.7,0.7h6.6C10.8,20.3,11,20.1,11,19.6L11,19.6z M4.7,7.5l0.5,11.3H4.5L4,7.5H4.7z
		 M4.7,4.4v0.9h4.6V4.4c0-0.4-0.2-0.7-0.7-0.7H5.4C4.9,3.7,4.7,3.9,4.7,4.4z M6.7,18.8V7.5h0.7v11.3H6.7z M10,7.5L9.5,18.8H8.8
		L9.3,7.5H10z"/>
</g>
</svg>
