<svg xmlns="http://www.w3.org/2000/svg" viewBox="95 796 157 23.669">
  <defs>
    <style>
      .cls-1 {
        fill: #fff;
      }

      .cls-2 {
        fill: #5ce500;
      }
    </style>
  </defs>
  <g id="Group_32" data-name="Group 32" transform="translate(95 796.025)">
    <g id="Group_30" data-name="Group 30" transform="translate(103.805 4.764)">
      <g id="Group_29" data-name="Group 29">
        <path id="Path_12" data-name="Path 12" class="cls-1" d="M265,14.2h11.164v1.058H271.15V27.91h-1.136V15.258H265Z" transform="translate(-265 -13.417)"/>
        <path id="Path_13" data-name="Path 13" class="cls-1" d="M294.64,32.723a3.911,3.911,0,0,0,2.781-.979v1.1a4.557,4.557,0,0,1-2.9.862c-2.781,0-4.622-1.959-4.622-5.053,0-3.055,1.645-5.249,4.27-5.249,2.585,0,3.917,1.959,3.917,4.857v.392h-7.129C291.036,31.313,292.6,32.723,294.64,32.723Zm-3.565-4.975h5.993c-.078-1.724-.9-3.369-2.86-3.369C292.6,24.379,291.349,25.594,291.075,27.748Z" transform="translate(-280.146 -19.013)"/>
        <path id="Path_14" data-name="Path 14" class="cls-1" d="M316.236,26.694H315.1V12.2h1.136Z" transform="translate(-295.475 -12.2)"/>
        <path id="Path_15" data-name="Path 15" class="cls-1" d="M326.94,32.723a3.911,3.911,0,0,0,2.781-.979v1.1a4.557,4.557,0,0,1-2.9.862c-2.781,0-4.622-1.959-4.622-5.053,0-3.055,1.645-5.249,4.27-5.249,2.585,0,3.917,1.959,3.917,4.857v.392h-7.129C323.336,31.313,324.9,32.723,326.94,32.723Zm-3.565-4.975h5.993c-.078-1.724-.9-3.369-2.859-3.369C324.9,24.379,323.649,25.594,323.375,27.748Z" transform="translate(-299.794 -19.013)"/>
        <path id="Path_16" data-name="Path 16" class="cls-1" d="M352.061,24.553a2.176,2.176,0,0,0-.9-.2,2.882,2.882,0,0,0-2.625,2.154v6.933H347.4v-9.91h1.136V25.1a2.991,2.991,0,0,1,2.664-1.8,3.773,3.773,0,0,1,.862.118Z" transform="translate(-315.123 -18.952)"/>
        <path id="Path_17" data-name="Path 17" class="cls-1" d="M362.644,15.789a.744.744,0,0,1-.744-.744.744.744,0,0,1,1.489,0A.72.72,0,0,1,362.644,15.789Zm.548,12.182h-1.136V18.06h1.136Z" transform="translate(-323.943 -13.477)"/>
        <path id="Path_18" data-name="Path 18" class="cls-1" d="M378.578,26.694h-1.371L372.036,21.6v5.092H370.9V12.2h1.136v8.931l5.014-4.348H378.5l-5.288,4.544Z" transform="translate(-329.417 -12.2)"/>
      </g>
      <path id="Path_19" data-name="Path 19" class="cls-1" d="M394.849,21.4a1.446,1.446,0,0,1-1.449-1.449,1.422,1.422,0,0,1,1.449-1.449,1.449,1.449,0,0,1,0,2.9m0-2.664a1.215,1.215,0,1,0,1.175,1.214,1.188,1.188,0,0,0-1.175-1.214m-.2,1.489v.47h-.431V19.166h.705a.5.5,0,0,1,.548.548.472.472,0,0,1-.313.47l.353.548h-.47l-.313-.47h-.078Zm.274-.705h-.235v.353h.235a.179.179,0,0,0,.2-.157.185.185,0,0,0-.2-.2" transform="translate(-343.104 -16.032)"/>
    </g>
    <path id="Path_20" data-name="Path 20" class="cls-2" d="M18.92,15.81a.8.8,0,0,1-.353.627l-4.9,2.82V8.368L4.191,2.883l4.9-2.82a.749.749,0,0,1,.705,0l9.088,5.249v10.5ZM11.556,9.582,5.092,5.821a.749.749,0,0,0-.705,0L0,8.368l6.816,3.956V20.2L11.2,17.69a.8.8,0,0,0,.353-.627V9.582ZM0,16.241l4.74,2.742V13.5Z"/>
    <g id="Group_31" data-name="Group 31" transform="translate(24.169 5.312)">
      <path id="Path_21" data-name="Path 21" class="cls-1" d="M66.831,13.6H61.7V27.545h2.272V22.061h2.9c3.134,0,4.857-1.528,4.857-4.309-.039-1.214-.509-4.152-4.9-4.152m2.546,4.231c0,1.567-.823,2.233-2.82,2.233H63.972V15.676h2.9c1.684,0,2.507.705,2.507,2.154M78.5,17.4l.157.078-.392,2.076L78,19.476a1.99,1.99,0,0,0-.666-.118c-2.115,0-2.311,1.684-2.311,3.76v4.426H72.9V17.321h2v1.253A2.783,2.783,0,0,1,76.938,17.2a2.9,2.9,0,0,1,1.567.2m5.171-.274a4.385,4.385,0,0,0-3.839,1.841,6.124,6.124,0,0,0-1.018,3.525c0,3.251,1.919,5.327,4.9,5.327,3.6,0,4.9-2.9,4.9-5.406A5.7,5.7,0,0,0,87.4,18.731a4.607,4.607,0,0,0-3.721-1.606m0,8.774c-1.645,0-2.7-1.332-2.7-3.447,0-2.154,1.018-3.486,2.7-3.486,1.645,0,2.7,1.332,2.7,3.447.039,2.154-1.018,3.486-2.7,3.486m22.68-8.5.157.078-.392,2.076-.274-.078a1.99,1.99,0,0,0-.666-.118c-2.115,0-2.311,1.684-2.311,3.76v4.426h-2.115V17.321h2v1.253a2.885,2.885,0,0,1,3.6-1.175m7.6,6.855-.039.118A2.249,2.249,0,0,1,111.6,25.9a2.664,2.664,0,0,1-2.742-2.781h7.247l.039-.2a5.786,5.786,0,0,0,.039-.823v-.2c-.118-2.86-1.959-4.779-4.661-4.779a4.5,4.5,0,0,0-3.721,1.763,6.017,6.017,0,0,0-1.1,3.565c0,3.173,1.959,5.288,4.9,5.288a4.157,4.157,0,0,0,4.387-3.251l.078-.235h-2.115Zm-4.975-2.977a2.467,2.467,0,0,1,2.546-2.311,2.393,2.393,0,0,1,2.468,2.311ZM96.954,18.183a3.6,3.6,0,0,0-2.7-1.058c-3.095,0-4.5,2.742-4.5,5.288,0,2.585,1.41,5.249,4.5,5.249A3.633,3.633,0,0,0,96.876,26.6a7.3,7.3,0,0,1-.039,1.058,2.287,2.287,0,0,1-2.546,2.468c-.9,0-1.919-.313-2.115-1.214l-.039-.2H90.06l.039.274c.235,1.8,1.8,2.938,4.152,2.938A4.381,4.381,0,0,0,98.482,29.7a7.052,7.052,0,0,0,.509-3.055V17.321h-2v.862ZM94.369,25.7c-.744,0-2.468-.353-2.468-3.447,0-2.037.979-3.29,2.507-3.29,1.214,0,2.468.862,2.468,3.29,0,2.194-.94,3.447-2.507,3.447m31.572-1.214c0,1.645-1.371,3.29-4.387,3.29-2.664,0-4.27-1.175-4.466-3.251l-.039-.235h2.076l.039.157c.274,1.253,1.449,1.528,2.429,1.528,1.058,0,2.194-.353,2.194-1.293,0-.47-.313-.823-.94-1.018-.353-.118-.823-.235-1.293-.353-.823-.235-1.684-.47-2.194-.666a2.694,2.694,0,0,1-2.037-2.468c0-2.076,2-2.977,4-2.977,2.664,0,4.035,1.018,4.231,3.055v.2h-2.037l-.039-.157c-.2-1.175-1.371-1.371-2.076-1.371-.588,0-1.959.118-1.959,1.1,0,.431.392.783,1.175,1.018.235.078.588.157.979.274.823.235,1.88.47,2.389.666a2.467,2.467,0,0,1,1.959,2.507m9.793,0c0,1.645-1.371,3.29-4.387,3.29-2.664,0-4.27-1.175-4.466-3.251l-.039-.235h2.076l.039.157c.274,1.253,1.449,1.528,2.429,1.528,1.058,0,2.194-.353,2.194-1.293,0-.47-.313-.823-.94-1.018-.353-.118-.823-.235-1.293-.353-.823-.235-1.684-.47-2.194-.666a2.694,2.694,0,0,1-2.037-2.468c0-2.076,2-2.977,4-2.977,2.664,0,4.035,1.018,4.231,3.055v.2h-2.037l-.039-.157c-.2-1.175-1.371-1.371-2.076-1.371-.588,0-1.959.118-1.959,1.1,0,.431.392.783,1.175,1.018.235.078.588.157.979.274.823.235,1.88.47,2.389.666a2.467,2.467,0,0,1,1.959,2.507" transform="translate(-61.7 -13.6)"/>
      <path id="Path_22" data-name="Path 22" class="cls-1" d="M252.749,21.4a1.446,1.446,0,0,1-1.449-1.449,1.422,1.422,0,0,1,1.449-1.449,1.446,1.446,0,0,1,1.449,1.449,1.471,1.471,0,0,1-1.449,1.449m0-2.664a1.215,1.215,0,1,0,1.175,1.214,1.188,1.188,0,0,0-1.175-1.214m-.2,1.489v.47h-.431V19.166h.705a.5.5,0,0,1,.548.548.472.472,0,0,1-.313.47l.353.548h-.47l-.313-.47h-.078Zm.235-.705h-.235v.353h.235a.179.179,0,0,0,.2-.157c.039-.118-.039-.2-.2-.2" transform="translate(-177.031 -16.581)"/>
    </g>
  </g>
</svg>
