<?xml version="1.0" encoding="utf-8"?>
<!-- Generator: Adobe Illustrator 22.1.0, SVG Export Plug-In . SVG Version: 6.00 Build 0)  -->
<svg version="1.1" id="Layer_1" xmlns="http://www.w3.org/2000/svg" xmlns:xlink="http://www.w3.org/1999/xlink" x="0px" y="0px"
	 viewBox="0 0 427.7 46" style="enable-background:new 0 0 427.7 46;" xml:space="preserve">
<style type="text/css">
	.st0{enable-background:new    ;}
	.st1{fill:#FFFFFF;}
	.st2{fill:#5CE500;}
</style>
<g id="Group_28" transform="translate(5744)">
	<g class="st0">
		<path class="st1" d="M-5742.6,1.4h20.5v3.7h-8.2V26h-4.2V5.1h-8.2V1.4z"/>
		<path class="st1" d="M-5719.5,18c0.3,3.5,2.6,5,5.5,5c2,0,3.4-0.5,5.1-1.6v3.5c-1.5,1.1-3.4,1.6-5.6,1.6c-5.2,0-8.8-3.5-8.8-9.1
			c0-5.6,3.4-9.4,8.2-9.4c4.9,0,7.5,3.5,7.5,8.7V18H-5719.5z M-5719.3,15h7.7c-0.1-2.2-1.4-3.8-3.6-3.8
			C-5717,11.2-5718.7,12.2-5719.3,15z"/>
		<path class="st1" d="M-5701.1,26h-4V0h4V26z"/>
		<path class="st1" d="M-5694.7,18c0.3,3.5,2.6,5,5.5,5c2,0,3.4-0.5,5.1-1.6v3.5c-1.5,1.1-3.4,1.6-5.6,1.6c-5.2,0-8.8-3.5-8.8-9.1
			c0-5.6,3.4-9.4,8.2-9.4c4.9,0,7.5,3.5,7.5,8.7V18H-5694.7z M-5694.4,15h7.7c-0.1-2.2-1.4-3.8-3.6-3.8
			C-5692.1,11.2-5693.8,12.2-5694.4,15z"/>
		<path class="st1" d="M-5670.4,12.3c-0.6-0.4-1.5-0.6-2.4-0.6c-1.6,0-3.2,0.9-3.6,2.8V26h-4V8.2h4v1.8c0.7-1.3,2.2-2.2,4-2.2
			c0.9,0,1.7,0.2,2,0.3V12.3z"/>
		<path class="st1" d="M-5665.8,5.3c-1.3,0-2.5-1.1-2.5-2.4c0-1.4,1.2-2.4,2.5-2.4c1.3,0,2.5,1.1,2.5,2.4
			C-5663.4,4.2-5664.5,5.3-5665.8,5.3z M-5663.8,26h-4V8.2h4V26z"/>
		<path class="st1" d="M-5644,26h-4.8l-7.2-8.5V26h-4V0h4v15.4l6.9-7.2h5l-8,8.1L-5644,26z"/>
	</g>
	<g class="st0">
		<path class="st1" d="M-5621.5,1.1c2.8,0,5,0.8,6.6,2.1v3.3c-2-1.8-4-2.6-6.6-2.6c-5,0-8.4,3.9-8.4,9.8s3.4,9.8,8.4,9.8
			c2.5,0,4.6-0.8,6.6-2.6v3.3c-1.6,1.3-3.8,2.1-6.6,2.1c-6.6,0-11.5-5-11.5-12.6S-5628,1.1-5621.5,1.1z"/>
		<path class="st1" d="M-5604.9,26.4c-4.9,0-8.2-3.8-8.2-9.2c0-5.4,3.3-9.2,8.2-9.2c4.8,0,8.2,3.8,8.2,9.2
			C-5596.7,22.6-5600,26.4-5604.9,26.4z M-5604.9,10.5c-3.2,0-5.1,2.7-5.1,6.6c0,3.9,1.9,6.6,5.1,6.6c3.2,0,5.1-2.7,5.1-6.6
			C-5599.8,13.2-5601.7,10.5-5604.9,10.5z"/>
		<path class="st1" d="M-5582.4,23.9c-0.9,1.3-2.8,2.4-5,2.4c-5.2,0-8-4.2-8-9.2c0-5,2.8-9.2,8-9.2c2.2,0,4.1,1.2,5,2.4V0h3v26h-3
			V23.9z M-5582.4,13.5c-0.9-1.8-2.7-2.9-4.6-2.9c-3.4,0-5.4,2.8-5.4,6.5c0,3.8,2,6.5,5.4,6.5c1.9,0,3.6-1.1,4.6-2.9V13.5z"/>
		<path class="st1" d="M-5573.9,17.6c0.1,4.1,2.7,6.1,6,6.1c2,0,3.4-0.5,5-1.7v2.8c-1.4,1.1-3.3,1.6-5.4,1.6c-5.1,0-8.6-3.5-8.6-9.1
			c0-5.5,3.2-9.4,7.9-9.4c4.8,0,7.3,3.5,7.3,8.7v1.1H-5573.9z M-5573.8,15.3h9.2c-0.1-2.6-1.4-4.8-4.3-4.8
			C-5571.3,10.4-5573.2,12-5573.8,15.3z"/>
		<path class="st1" d="M-5541.6,1.1c2.8,0,5,0.8,6.6,2.1v3.3c-2-1.8-4-2.6-6.6-2.6c-5,0-8.4,3.9-8.4,9.8s3.4,9.8,8.4,9.8
			c2.5,0,4.6-0.8,6.6-2.6v3.3c-1.6,1.3-3.8,2.1-6.6,2.1c-6.6,0-11.5-5-11.5-12.6S-5548.1,1.1-5541.6,1.1z"/>
		<path class="st1" d="M-5525,26.4c-4.9,0-8.2-3.8-8.2-9.2c0-5.4,3.3-9.2,8.2-9.2c4.8,0,8.2,3.8,8.2,9.2
			C-5516.8,22.6-5520.1,26.4-5525,26.4z M-5525,10.5c-3.2,0-5.1,2.7-5.1,6.6c0,3.9,1.9,6.6,5.1,6.6s5.1-2.7,5.1-6.6
			C-5519.8,13.2-5521.8,10.5-5525,10.5z"/>
		<path class="st1" d="M-5514.3,8.2h3v2.2c1-1.4,3-2.6,5.2-2.6c4,0,6.2,2.6,6.2,6.5V26h-3V14.8c0-2.5-1.2-4.2-3.9-4.2
			c-2.1,0-3.9,1.4-4.5,3.3v12h-3V8.2z"/>
		<path class="st1" d="M-5491.6,26l-6.9-17.8h3.2l5.2,14l5.2-14h3.2l-6.9,17.8H-5491.6z"/>
		<path class="st1" d="M-5478.5,17.6c0.1,4.1,2.7,6.1,6,6.1c2,0,3.4-0.5,5-1.7v2.8c-1.4,1.1-3.3,1.6-5.4,1.6c-5.1,0-8.6-3.5-8.6-9.1
			c0-5.5,3.2-9.4,7.9-9.4c4.8,0,7.3,3.5,7.3,8.7v1.1H-5478.5z M-5478.3,15.3h9.2c-0.1-2.6-1.4-4.8-4.3-4.8
			C-5475.8,10.4-5477.8,12-5478.3,15.3z"/>
		<path class="st1" d="M-5454.6,11.2c-0.5-0.3-1.2-0.5-2-0.5c-1.9,0-3.5,1.2-4.1,3.3V26h-3V8.2h3v2.3c0.8-1.5,2.4-2.7,4.4-2.7
			c0.8,0,1.4,0.1,1.7,0.3V11.2z"/>
		<path class="st1" d="M-5447.5,26h-3V10.8h-3.7V8.2h3.7V3.6h3v4.7h4.1v2.6h-4.1V26z"/>
		<path class="st1" d="M-5439.9,17.6c0.1,4.1,2.7,6.1,6,6.1c2,0,3.4-0.5,5-1.7v2.8c-1.4,1.1-3.3,1.6-5.4,1.6c-5.1,0-8.6-3.5-8.6-9.1
			c0-5.5,3.2-9.4,7.9-9.4c4.8,0,7.3,3.5,7.3,8.7v1.1H-5439.9z M-5439.8,15.3h9.2c-0.1-2.6-1.4-4.8-4.3-4.8
			C-5437.3,10.4-5439.2,12-5439.8,15.3z"/>
		<path class="st1" d="M-5416,11.2c-0.5-0.3-1.2-0.5-2-0.5c-1.9,0-3.5,1.2-4.1,3.3V26h-3V8.2h3v2.3c0.8-1.5,2.4-2.7,4.4-2.7
			c0.8,0,1.4,0.1,1.7,0.3V11.2z"/>
	</g>
	<g class="st0">
		<path class="st1" d="M-5739.2,32.9c0.9,0,1.6,0.3,2.1,0.7v1.1c-0.6-0.6-1.3-0.8-2.1-0.8c-1.6,0-2.7,1.3-2.7,3.2s1.1,3.2,2.7,3.2
			c0.8,0,1.5-0.3,2.1-0.8v1.1c-0.5,0.4-1.2,0.7-2.1,0.7c-2.1,0-3.7-1.6-3.7-4.1S-5741.3,32.9-5739.2,32.9z"/>
		<path class="st1" d="M-5733,41.1c-2.1,0-3.6-1.7-3.6-4.1c0-2.4,1.5-4.1,3.6-4.1c2.1,0,3.6,1.7,3.6,4.1
			C-5729.4,39.4-5730.9,41.1-5733,41.1z M-5733,33.8c-1.5,0-2.6,1.3-2.6,3.2s1,3.2,2.6,3.2c1.5,0,2.6-1.3,2.6-3.2
			S-5731.5,33.8-5733,33.8z"/>
		<path class="st1" d="M-5722.4,41h-0.8l-4.5-6.3V41h-1v-8h1l4.3,6.1V33h1V41z"/>
		<path class="st1" d="M-5718.8,41l-3.1-8h1.1l2.5,6.6l2.5-6.6h1l-3.1,8H-5718.8z"/>
		<path class="st1" d="M-5709.1,33v0.9h-4.1v2.5h3.7v0.9h-3.7v2.7h4.1V41h-5.1v-8H-5709.1z"/>
		<path class="st1" d="M-5707.1,37.6V41h-1v-8h2.9c1.6,0,2.7,0.8,2.7,2.3c0,1.3-0.8,2.1-2,2.2l2.4,3.4h-1.2l-2.3-3.4H-5707.1z
			 M-5707.1,36.7h1.9c1.1,0,1.7-0.5,1.7-1.4c0-0.9-0.6-1.4-1.7-1.4h-1.9V36.7z"/>
		<path class="st1" d="M-5702.3,33h6.6v0.9h-2.8V41h-1v-7.1h-2.8V33z"/>
		<path class="st1" d="M-5689.5,32.9c0.9,0,1.6,0.3,2.1,0.7v1.1c-0.6-0.6-1.3-0.8-2.1-0.8c-1.6,0-2.7,1.3-2.7,3.2s1.1,3.2,2.7,3.2
			c0.8,0,1.5-0.3,2.1-0.8v1.1c-0.5,0.4-1.2,0.7-2.1,0.7c-2.1,0-3.7-1.6-3.7-4.1S-5691.7,32.9-5689.5,32.9z"/>
		<path class="st1" d="M-5683.4,41.1c-2.1,0-3.6-1.7-3.6-4.1c0-2.4,1.5-4.1,3.6-4.1c2.1,0,3.6,1.7,3.6,4.1
			C-5679.7,39.4-5681.2,41.1-5683.4,41.1z M-5683.4,33.8c-1.5,0-2.6,1.3-2.6,3.2s1,3.2,2.6,3.2c1.5,0,2.6-1.3,2.6-3.2
			S-5681.8,33.8-5683.4,33.8z"/>
		<path class="st1" d="M-5679,33h2.6c2.3,0,3.9,1.6,3.9,4s-1.5,4-3.9,4h-2.6V33z M-5676.4,40.1c1.8,0,2.9-1.2,2.9-3.1
			s-1.1-3.1-2.9-3.1h-1.5v6.1H-5676.4z"/>
		<path class="st1" d="M-5666.7,33v0.9h-4.1v2.5h3.7v0.9h-3.7v2.7h4.1V41h-5.1v-8H-5666.7z"/>
		<path class="st1" d="M-5663.5,41v-8h4.9v0.9h-3.8v2.7h3.6v0.9h-3.6V41H-5663.5z"/>
		<path class="st1" d="M-5656.8,37.6V41h-1v-8h2.9c1.6,0,2.7,0.8,2.7,2.3c0,1.3-0.8,2.1-2,2.2l2.4,3.4h-1.2l-2.3-3.4H-5656.8z
			 M-5656.8,36.7h1.9c1.1,0,1.7-0.5,1.7-1.4c0-0.9-0.6-1.4-1.7-1.4h-1.9V36.7z"/>
		<path class="st1" d="M-5648.2,41.1c-2.1,0-3.6-1.7-3.6-4.1c0-2.4,1.5-4.1,3.6-4.1c2.1,0,3.6,1.7,3.6,4.1
			C-5644.6,39.4-5646.1,41.1-5648.2,41.1z M-5648.2,33.8c-1.5,0-2.6,1.3-2.6,3.2s1,3.2,2.6,3.2c1.5,0,2.6-1.3,2.6-3.2
			S-5646.6,33.8-5648.2,33.8z"/>
		<path class="st1" d="M-5640.1,39.2l-2.7-4.4V41h-1v-8h0.9l2.8,4.6l2.8-4.6h0.9v8h-1v-6.1L-5640.1,39.2L-5640.1,39.2z"/>
		<path class="st1" d="M-5629.5,32.9c0.9,0,1.6,0.3,2.1,0.7v1.1c-0.6-0.6-1.3-0.8-2.1-0.8c-1.6,0-2.7,1.3-2.7,3.2s1.1,3.2,2.7,3.2
			c0.8,0,1.5-0.3,2.1-0.8v1.1c-0.5,0.4-1.2,0.7-2.1,0.7c-2.1,0-3.7-1.6-3.7-4.1S-5631.7,32.9-5629.5,32.9z"/>
		<path class="st1" d="M-5620.9,38.7h-1.4l-0.5,2.3h-0.9l0.5-2.3h-1.8l-0.5,2.3h-0.9l0.5-2.3h-1.2l0.2-0.8h1.3l0.4-1.9h-1.3l0.2-0.8
			h1.4l0.5-2.3h0.9l-0.6,2.3h1.8l0.6-2.3h0.9l-0.5,2.3h1.2l-0.2,0.8h-1.3l-0.4,1.9h1.3L-5620.9,38.7z M-5624.8,37.9h1.8l0.4-1.9
			h-1.8L-5624.8,37.9z"/>
		<path class="st1" d="M-5618,33h6.6v0.9h-2.8V41h-1v-7.1h-2.8V33z"/>
		<path class="st1" d="M-5608,41.1c-2.1,0-3.6-1.7-3.6-4.1c0-2.4,1.5-4.1,3.6-4.1c2.1,0,3.6,1.7,3.6,4.1
			C-5604.3,39.4-5605.8,41.1-5608,41.1z M-5608,33.8c-1.5,0-2.6,1.3-2.6,3.2s1,3.2,2.6,3.2c1.5,0,2.6-1.3,2.6-3.2
			S-5606.4,33.8-5608,33.8z"/>
		<path class="st1" d="M-5598.9,41l-3.1-8h1.1l2.5,6.6l2.5-6.6h1l-3.1,8H-5598.9z"/>
		<path class="st1" d="M-5588.8,38.8c0,1.5-1,2.2-2.7,2.2h-2.9v-8h2.6c1.7,0,2.6,0.7,2.6,2.1c0,0.9-0.5,1.5-1.2,1.7
			C-5589.4,37.1-5588.8,37.9-5588.8,38.8z M-5591.7,36.5c1.1,0,1.7-0.4,1.7-1.3s-0.6-1.3-1.7-1.3h-1.6v2.6H-5591.7z M-5593.3,40.1
			h1.9c1.1,0,1.7-0.5,1.7-1.4c0-0.8-0.6-1.4-1.7-1.4h-1.9V40.1z"/>
		<path class="st1" d="M-5582.3,33l3.1,8h-1l-0.9-2.4h-3.3l-0.9,2.4h-1l3.1-8H-5582.3z M-5584.1,37.7h2.6l-1.3-3.4L-5584.1,37.7z"/>
		<path class="st1" d="M-5572.5,41h-0.8l-4.5-6.3V41h-1v-8h1l4.3,6.1V33h1V41z"/>
		<path class="st1" d="M-5571.2,33h2.6c2.3,0,3.9,1.6,3.9,4s-1.5,4-3.9,4h-2.6V33z M-5568.7,40.1c1.8,0,2.9-1.2,2.9-3.1
			s-1.1-3.1-2.9-3.1h-1.5v6.1H-5568.7z"/>
		<path class="st1" d="M-5561.8,41v-8h4.9v0.9h-3.8v2.7h3.6v0.9h-3.6V41H-5561.8z"/>
		<path class="st1" d="M-5555.1,37.6V41h-1v-8h2.9c1.6,0,2.7,0.8,2.7,2.3c0,1.3-0.8,2.1-2,2.2l2.4,3.4h-1.2l-2.3-3.4H-5555.1z
			 M-5555.1,36.7h1.9c1.1,0,1.7-0.5,1.7-1.4c0-0.9-0.6-1.4-1.7-1.4h-1.9V36.7z"/>
		<path class="st1" d="M-5546.5,41.1c-2.1,0-3.6-1.7-3.6-4.1c0-2.4,1.5-4.1,3.6-4.1c2.1,0,3.6,1.7,3.6,4.1
			C-5542.9,39.4-5544.4,41.1-5546.5,41.1z M-5546.5,33.8c-1.5,0-2.6,1.3-2.6,3.2s1,3.2,2.6,3.2c1.5,0,2.6-1.3,2.6-3.2
			S-5544.9,33.8-5546.5,33.8z"/>
		<path class="st1" d="M-5538.3,39.2l-2.7-4.4V41h-1v-8h0.9l2.8,4.6l2.8-4.6h0.9v8h-1v-6.1L-5538.3,39.2L-5538.3,39.2z"/>
		<path class="st1" d="M-5528.7,41l-3.1-8h1.1l2.5,6.6l2.5-6.6h1l-3.1,8H-5528.7z"/>
		<path class="st1" d="M-5518.6,38.8c0,1.5-1,2.2-2.7,2.2h-2.9v-8h2.6c1.7,0,2.6,0.7,2.6,2.1c0,0.9-0.5,1.5-1.2,1.7
			C-5519.1,37.1-5518.6,37.9-5518.6,38.8z M-5521.5,36.5c1.1,0,1.7-0.4,1.7-1.3s-0.6-1.3-1.7-1.3h-1.6v2.6H-5521.5z M-5523.1,40.1
			h1.9c1.1,0,1.7-0.5,1.7-1.4c0-0.8-0.6-1.4-1.7-1.4h-1.9V40.1z"/>
		<path class="st1" d="M-5516.1,33h6.6v0.9h-2.8V41h-1v-7.1h-2.8V33z"/>
		<path class="st1" d="M-5506.1,41.1c-2.1,0-3.6-1.7-3.6-4.1c0-2.4,1.5-4.1,3.6-4.1c2.1,0,3.6,1.7,3.6,4.1
			C-5502.5,39.4-5504,41.1-5506.1,41.1z M-5506.1,33.8c-1.5,0-2.6,1.3-2.6,3.2s1,3.2,2.6,3.2c1.5,0,2.6-1.3,2.6-3.2
			S-5504.5,33.8-5506.1,33.8z"/>
		<path class="st1" d="M-5496.2,32.9c0.9,0,1.6,0.3,2.1,0.7v1.1c-0.7-0.6-1.3-0.8-2.1-0.8c-1.6,0-2.7,1.3-2.7,3.2s1.1,3.2,2.7,3.2
			c0.8,0,1.5-0.3,2.1-0.8v1.1c-0.5,0.4-1.2,0.7-2.1,0.7c-2.1,0-3.7-1.6-3.7-4.1S-5498.3,32.9-5496.2,32.9z"/>
		<path class="st1" d="M-5487.6,38.7h-1.4l-0.5,2.3h-0.9l0.5-2.3h-1.8l-0.5,2.3h-0.9l0.5-2.3h-1.2l0.2-0.8h1.3l0.4-1.9h-1.3l0.2-0.8
			h1.4l0.5-2.3h0.9l-0.6,2.3h1.8l0.6-2.3h0.9l-0.5,2.3h1.2l-0.2,0.8h-1.3l-0.4,1.9h1.3L-5487.6,38.7z M-5491.5,37.9h1.8l0.4-1.9
			h-1.8L-5491.5,37.9z"/>
	</g>
	<g class="st0">
		<path class="st1" d="M-5410.5,26h-1.4V14.3h1.4v4.6c0.4-0.6,1.3-1.1,2.3-1.1c2.3,0,3.6,1.9,3.6,4.2c0,2.3-1.3,4.2-3.6,4.2
			c-1,0-1.9-0.5-2.3-1.1V26z M-5410.5,23.6c0.4,0.8,1.2,1.3,2.1,1.3c1.5,0,2.4-1.2,2.4-2.9s-0.9-2.9-2.4-2.9c-0.8,0-1.6,0.5-2.1,1.3
			V23.6z"/>
		<path class="st1" d="M-5402.9,29.1l1.2-3l-3.1-8h1.5l2.4,6.3l2.3-6.3h1.4l-4.3,11.1H-5402.9z"/>
	</g>
	<g class="st0">
		<path class="st1" d="M-5639,11.4c-1.4,0-2.5-1.1-2.5-2.6c0-1.5,1.1-2.6,2.5-2.6s2.5,1.1,2.5,2.6
			C-5636.5,10.3-5637.6,11.4-5639,11.4z M-5639,6.7c-1.1,0-2.1,0.9-2.1,2.1c0,1.2,0.9,2.1,2.1,2.1c1.1,0,2.1-0.9,2.1-2.1
			C-5636.9,7.6-5637.9,6.7-5639,6.7z M-5639.3,9.3v0.9h-0.7V7.5h1.2c0.6,0,1,0.3,1,0.9c0,0.4-0.2,0.7-0.5,0.8l0.6,1h-0.8l-0.6-0.9
			H-5639.3z M-5638.9,8.1h-0.5v0.7h0.5c0.2,0,0.4-0.1,0.4-0.3C-5638.5,8.2-5638.6,8.1-5638.9,8.1z"/>
	</g>
	<g id="Group_27" transform="translate(372 32.025)">
		<path id="Path_1" class="st2" d="M-5751.5-7.9c0,0.2-0.1,0.4-0.3,0.5l-3.8,2.2v-8.4l-7.3-4.2l3.8-2.2c0.2-0.1,0.4-0.1,0.5,0l7,4
			L-5751.5-7.9L-5751.5-7.9z M-5757.1-12.7l-5-2.9c-0.2-0.1-0.4-0.1-0.5,0l-3.4,2l5.2,3v6l3.4-1.9c0.2-0.1,0.3-0.3,0.3-0.5
			L-5757.1-12.7L-5757.1-12.7z M-5766-7.5l3.6,2.1v-4.2L-5766-7.5z"/>
		<g id="Group_26" transform="translate(18.543 4.07)">
			<path id="Path_2" class="st1" d="M-5749.1-17.3c-1.2-0.1-2.3,0.5-2.9,1.4c-0.5,0.8-0.8,1.7-0.8,2.7c0,2.5,1.5,4.1,3.8,4.1
				c2.8,0,3.8-2.2,3.8-4.1c0-1-0.3-2-0.9-2.8C-5747-16.9-5748-17.3-5749.1-17.3z M-5749.1-10.6c-1.3,0-2.1-1-2.1-2.6
				c0-1.7,0.8-2.7,2.1-2.7c1.3,0,2.1,1,2.1,2.6C-5747-11.6-5747.8-10.6-5749.1-10.6z"/>
			<path id="Path_3" class="st1" d="M-5762.1-20h-3.9v10.7h1.7v-4.2h2.2c2.4,0,3.7-1.2,3.7-3.3C-5758.3-17.7-5758.7-20-5762.1-20z
				 M-5762.3-15.1h-2v-3.3h2.2c1.3,0,1.9,0.5,1.9,1.7C-5760.1-15.6-5760.7-15.1-5762.3-15.1z"/>
			<path id="Path_4" class="st1" d="M-5754.3-17.2c-0.7,0.1-1.2,0.5-1.6,1.1v-1h-1.5v7.8h1.6v-3.4c0-1.6,0.1-2.9,1.8-2.9
				c0.2,0,0.3,0,0.5,0.1l0.2,0.1l0.3-1.6l-0.1-0.1C-5753.5-17.2-5753.9-17.3-5754.3-17.2z"/>
			<path id="Path_5" class="st1" d="M-5710.7-13.6c-0.6-0.2-1.2-0.4-1.8-0.5c-0.3-0.1-0.6-0.1-0.8-0.2c-0.6-0.2-0.9-0.4-0.9-0.8
				c0-0.8,1.1-0.8,1.5-0.8c0.5,0,1.4,0.1,1.6,1.1l0,0.1h1.6v-0.1c-0.1-1.6-1.2-2.3-3.2-2.3c-1.5,0-3.1,0.7-3.1,2.3
				c0,0.9,0.7,1.7,1.6,1.9c0.4,0.1,1.1,0.3,1.7,0.5c0.4,0.1,0.7,0.2,1,0.3c0.5,0.1,0.7,0.4,0.7,0.8c0,0.7-0.9,1-1.7,1
				c-0.8,0-1.7-0.2-1.9-1.2l0-0.1h-1.6l0,0.2c0.2,1.6,1.4,2.5,3.4,2.5c2.3,0,3.4-1.3,3.4-2.5C-5709.2-12.6-5709.8-13.4-5710.7-13.6z
				"/>
			<path id="Path_6" class="st1" d="M-5739-16.5c-0.5-0.5-1.3-0.8-2.1-0.8c-2.4,0-3.5,2.1-3.5,4.1c0,2,1.1,4,3.5,4
				c0.8,0,1.5-0.3,2-0.8c0,0.3,0,0.5,0,0.8c0.1,1-0.6,1.8-1.6,1.9c-0.1,0-0.2,0-0.4,0c-0.7,0-1.5-0.2-1.6-0.9l0-0.1h-1.6l0,0.2
				c0.2,1.4,1.4,2.3,3.2,2.3c1.3,0.1,2.6-0.5,3.2-1.7c0.3-0.7,0.4-1.5,0.4-2.3v-7.2h-1.5L-5739-16.5L-5739-16.5z M-5740.9-10.7
				c-0.6,0-1.9-0.3-1.9-2.6c0-1.6,0.8-2.5,1.9-2.5c0.9,0,1.9,0.7,1.9,2.5C-5739-11.7-5739.7-10.7-5740.9-10.7L-5740.9-10.7z"/>
			<path id="Path_7" class="st1" d="M-5718.2-13.6c-0.6-0.2-1.2-0.4-1.8-0.5c-0.3-0.1-0.6-0.1-0.8-0.2c-0.6-0.2-0.9-0.4-0.9-0.8
				c0-0.8,1.1-0.8,1.5-0.8c0.5,0,1.4,0.1,1.6,1.1l0,0.1h1.6v-0.1c-0.1-1.6-1.2-2.3-3.2-2.3c-1.5,0-3.1,0.7-3.1,2.3
				c0,0.9,0.7,1.7,1.6,1.9c0.4,0.1,1.1,0.3,1.7,0.5c0.4,0.1,0.7,0.2,1,0.3c0.5,0.1,0.7,0.4,0.7,0.8c0,0.7-0.9,1-1.7,1
				c-0.8,0-1.7-0.2-1.9-1.2l0-0.1h-1.6l0,0.2c0.1,1.6,1.4,2.5,3.4,2.5c2.3,0,3.4-1.3,3.4-2.5C-5716.7-12.6-5717.3-13.4-5718.2-13.6z
				"/>
			<path id="Path_8" class="st1" d="M-5724.2-13.6c0.1-1.9-1.4-3.6-3.4-3.7c-0.1,0-0.1,0-0.2,0c-1.1,0-2.2,0.5-2.9,1.4
				c-0.6,0.8-0.9,1.8-0.8,2.7c0,2.4,1.5,4.1,3.8,4.1c1.6,0.1,3-0.9,3.4-2.5l0.1-0.2h-1.6l0,0.1c-0.3,0.8-1,1.2-1.8,1.2
				c-1.1,0-2.1-0.9-2.1-2c0,0,0-0.1,0-0.1h5.6l0-0.1c0-0.2,0-0.4,0-0.6L-5724.2-13.6z M-5729.7-14.1c0.1-1,0.9-1.8,2-1.8
				c1,0,1.9,0.8,1.9,1.8H-5729.7z"/>
			<path id="Path_9" class="st1" d="M-5732.9-17.2c-0.7,0.1-1.2,0.5-1.6,1.1v-1h-1.5v7.8h1.6v-3.4c0-1.6,0.1-2.9,1.8-2.9
				c0.2,0,0.3,0,0.5,0.1l0.2,0.1l0.3-1.6l-0.1-0.1C-5732.1-17.2-5732.5-17.3-5732.9-17.2z"/>
			<path id="Path_10" class="st1" d="M-5707.4-17.6c0-0.2-0.1-0.4-0.4-0.4c0,0,0,0-0.1,0h-0.5v1.2h0.3v-0.4h0.1l0.2,0.4h0.4
				l-0.3-0.4C-5707.5-17.3-5707.4-17.4-5707.4-17.6z M-5707.9-17.5h-0.2v-0.3h0.2c0.1,0,0.1,0,0.1,0.1
				C-5707.7-17.5-5707.8-17.5-5707.9-17.5C-5707.9-17.5-5707.9-17.5-5707.9-17.5z"/>
			<path id="Path_11" class="st1" d="M-5707.9-18.6c-0.6,0-1.1,0.5-1.1,1.1s0.5,1.1,1.1,1.1c0.6,0,1.1-0.5,1.1-1.1c0,0,0,0,0,0
				C-5706.8-18.1-5707.3-18.6-5707.9-18.6C-5707.9-18.6-5707.9-18.6-5707.9-18.6z M-5707.9-16.5c-0.5,0-0.9-0.4-1-0.9
				c0-0.5,0.4-0.9,0.9-1c0.5,0,0.9,0.4,1,0.9c0,0,0,0,0,0C-5707-16.9-5707.4-16.5-5707.9-16.5C-5707.9-16.5-5707.9-16.5-5707.9-16.5
				z"/>
		</g>
	</g>
</g>
</svg>
